<svg width="165" height="26" viewBox="0 0 165 26" fill="none" xmlns="http://www.w3.org/2000/svg">
<path d="M23.8736 13.4707C23.8736 19.5083 18.9792 24.4028 12.9416 24.4028C6.90397 24.4028 2.00952 19.5083 2.00952 13.4707C2.00952 7.43308 6.90397 2.53864 12.9416 2.53864C18.9792 2.53864 23.8736 7.43308 23.8736 13.4707Z" fill="url(#paint0_linear_3029_97829)"/>
<path fill-rule="evenodd" clip-rule="evenodd" d="M12.9414 24.4316C19.0111 24.4316 23.9316 19.5112 23.9316 13.4415C23.9316 7.37182 19.0111 2.45137 12.9414 2.45137C6.87176 2.45137 1.95131 7.37182 1.95131 13.4415C1.95131 19.5112 6.87176 24.4316 12.9414 24.4316ZM12.9414 25.8834C19.8129 25.8834 25.3834 20.313 25.3834 13.4415C25.3834 6.57001 19.8129 0.999573 12.9414 0.999573C6.06995 0.999573 0.499512 6.57001 0.499512 13.4415C0.499512 20.313 6.06995 25.8834 12.9414 25.8834Z" fill="url(#paint1_linear_3029_97829)"/>
<path fill-rule="evenodd" clip-rule="evenodd" d="M25.4416 13.4417C25.4416 20.3452 19.8452 25.9416 12.9417 25.9416C6.03809 25.9416 0.44165 20.3452 0.44165 13.4417C0.44165 6.53809 6.03809 0.94165 12.9417 0.94165C19.8452 0.94165 25.4416 6.53809 25.4416 13.4417ZM12.9417 25.8836C19.8131 25.8836 25.3836 20.3131 25.3836 13.4417C25.3836 6.57016 19.8131 0.999722 12.9417 0.999722C6.07016 0.999722 0.499722 6.57016 0.499722 13.4417C0.499722 20.3131 6.07016 25.8836 12.9417 25.8836Z" fill="url(#paint2_linear_3029_97829)"/>
<path fill-rule="evenodd" clip-rule="evenodd" d="M23.9319 13.4271C23.9319 19.5048 19.005 24.4318 12.9273 24.4318C6.84956 24.4318 1.92261 19.5048 1.92261 13.4271C1.92261 7.34943 6.84956 2.42249 12.9273 2.42249C19.005 2.42249 23.9319 7.34943 23.9319 13.4271ZM12.9273 24.3156C18.9408 24.3156 23.8158 19.4407 23.8158 13.4271C23.8158 7.41358 18.9408 2.53863 12.9273 2.53863C6.9137 2.53863 2.03875 7.41358 2.03875 13.4271C2.03875 19.4407 6.9137 24.3156 12.9273 24.3156Z" fill="url(#paint3_linear_3029_97829)"/>
<path d="M12.4921 20.9253C12.4485 20.8818 12.2162 20.9979 12.3324 21.0705C12.4095 21.1187 13.2615 21.6222 13.8277 21.9997C14.1181 22.1933 14.3878 22.2818 14.4665 22.29C14.7006 22.3146 14.9908 21.9839 14.8585 21.869C14.7984 21.8168 14.4608 21.8088 14.1181 21.7238C13.7059 21.6216 13.2989 21.4335 13.3486 21.3754C13.3984 21.3173 13.5519 21.2012 13.5809 21.1576C13.61 21.1141 13.5809 21.0415 13.4793 21.027C13.3777 21.0124 13.1917 21.2272 12.9857 21.2157C12.7468 21.2024 12.5356 20.9689 12.4921 20.9253Z" fill="#E38403"/>
<path d="M12.4921 20.9253C12.4485 20.8818 12.2162 20.9979 12.3324 21.0705C12.4095 21.1187 13.2615 21.6222 13.8277 21.9997C14.1181 22.1933 14.3878 22.2818 14.4665 22.29C14.7006 22.3146 14.9908 21.9839 14.8585 21.869C14.7984 21.8168 14.4608 21.8088 14.1181 21.7238C13.7059 21.6216 13.2989 21.4335 13.3486 21.3754C13.3984 21.3173 13.5519 21.2012 13.5809 21.1576C13.61 21.1141 13.5809 21.0415 13.4793 21.027C13.3777 21.0124 13.1917 21.2272 12.9857 21.2157C12.7468 21.2024 12.5356 20.9689 12.4921 20.9253Z" fill="url(#paint4_linear_3029_97829)"/>
<path d="M12.7389 21.4625C12.5572 21.4988 11.3103 21.816 11.0838 21.8545C10.8573 21.893 11.3016 22.4062 11.5629 22.3191C11.9545 22.1885 12.6284 21.7238 12.7679 21.6512C12.9074 21.5786 12.8115 21.448 12.7389 21.4625Z" fill="#E38403"/>
<path d="M12.7389 21.4625C12.5572 21.4988 11.3103 21.816 11.0838 21.8545C10.8573 21.893 11.3016 22.4062 11.5629 22.3191C11.9545 22.1885 12.6284 21.7238 12.7679 21.6512C12.9074 21.5786 12.8115 21.448 12.7389 21.4625Z" fill="url(#paint5_linear_3029_97829)"/>
<path d="M19.7441 12.2726C19.7633 12.1722 19.8312 11.9968 19.9619 12.0984C20.4568 12.4833 20.7023 12.8969 20.9782 13.5066C21.1284 13.8387 20.891 14.5519 21.0653 14.4358C21.1456 14.3822 21.175 14.3297 21.225 14.2471C21.3664 14.0134 21.198 13.8097 21.283 13.5502C21.4088 13.1665 21.5008 12.9956 21.9073 12.7517C21.9799 12.7081 22.0452 12.8629 22.067 12.9404C22.1977 13.405 22.3615 13.7084 22.1977 14.189C21.9799 14.8278 21.8202 15.2198 21.283 15.5972C21.1602 15.6835 21.0453 15.6151 20.9056 15.6698C20.4938 15.8311 20.5136 16.4973 20.2377 16.5845C20.1421 16.6147 19.9975 16.4712 20.0635 16.3957C20.2668 16.1634 20.488 15.7237 20.47 15.2488C20.4438 14.5546 19.8294 14.2764 19.7441 13.5502C19.6847 13.0434 19.686 12.5775 19.7441 12.2726Z" fill="#FDAF1C"/>
<path d="M19.7441 12.2726C19.7633 12.1722 19.8312 11.9968 19.9619 12.0984C20.4568 12.4833 20.7023 12.8969 20.9782 13.5066C21.1284 13.8387 20.891 14.5519 21.0653 14.4358C21.1456 14.3822 21.175 14.3297 21.225 14.2471C21.3664 14.0134 21.198 13.8097 21.283 13.5502C21.4088 13.1665 21.5008 12.9956 21.9073 12.7517C21.9799 12.7081 22.0452 12.8629 22.067 12.9404C22.1977 13.405 22.3615 13.7084 22.1977 14.189C21.9799 14.8278 21.8202 15.2198 21.283 15.5972C21.1602 15.6835 21.0453 15.6151 20.9056 15.6698C20.4938 15.8311 20.5136 16.4973 20.2377 16.5845C20.1421 16.6147 19.9975 16.4712 20.0635 16.3957C20.2668 16.1634 20.488 15.7237 20.47 15.2488C20.4438 14.5546 19.8294 14.2764 19.7441 13.5502C19.6847 13.0434 19.686 12.5775 19.7441 12.2726Z" fill="url(#paint6_linear_3029_97829)"/>
<path d="M13.8197 4.83963C13.764 4.74355 13.7224 4.71626 13.8613 4.6768C14.0002 4.63735 15.6985 4.64225 16.1434 5.10072C16.5871 5.55782 16.7965 5.82171 16.8255 5.86975C16.8257 5.87007 16.8258 5.87029 16.826 5.87063C16.8294 5.87756 16.8694 5.96189 16.8548 6.01536C16.7958 6.17373 16.1289 5.88469 15.3595 5.88469C14.59 5.88469 13.8754 4.93571 13.8197 4.83963Z" fill="#FDAF1C"/>
<path d="M13.8197 4.83963C13.764 4.74355 13.7224 4.71626 13.8613 4.6768C14.0002 4.63735 15.6985 4.64225 16.1434 5.10072C16.5871 5.55782 16.7965 5.82171 16.8255 5.86975C16.8257 5.87007 16.8258 5.87029 16.826 5.87063C16.8294 5.87756 16.8694 5.96189 16.8548 6.01536C16.7958 6.17373 16.1289 5.88469 15.3595 5.88469C14.59 5.88469 13.8754 4.93571 13.8197 4.83963Z" fill="url(#paint7_linear_3029_97829)"/>
<path d="M21.1669 16.4683C21.254 16.4683 21.3459 16.4544 21.3231 16.6225C21.311 16.7122 21.2283 17.4917 20.9056 18.0363C20.6235 18.5122 20.1651 19.093 19.8313 19.1106C19.4974 19.1282 18.9602 19.0089 18.8585 18.9944C18.7569 18.9799 18.4614 19.037 18.4085 18.9944C18.2657 18.8565 18.9906 18.5162 19.3522 17.6878C19.5169 17.3103 19.8553 16.9015 20.2233 16.7151C20.6627 16.4926 21.0798 16.4683 21.1669 16.4683Z" fill="#E38403"/>
<path d="M21.1669 16.4683C21.254 16.4683 21.3459 16.4544 21.3231 16.6225C21.311 16.7122 21.2283 17.4917 20.9056 18.0363C20.6235 18.5122 20.1651 19.093 19.8313 19.1106C19.4974 19.1282 18.9602 19.0089 18.8585 18.9944C18.7569 18.9799 18.4614 19.037 18.4085 18.9944C18.2657 18.8565 18.9906 18.5162 19.3522 17.6878C19.5169 17.3103 19.8553 16.9015 20.2233 16.7151C20.6627 16.4926 21.0798 16.4683 21.1669 16.4683Z" fill="url(#paint8_linear_3029_97829)"/>
<path d="M17.3068 17.6988C17.3835 17.6897 17.4628 17.6677 17.4605 17.818C17.4593 17.8982 17.4688 18.5928 17.2423 19.1059C17.0443 19.5544 16.7945 19.96 16.5026 20.0107C16.2107 20.0614 15.592 19.8946 15.3307 19.9381C15.0693 19.9817 15.0913 19.9119 15.0403 19.88C14.9001 19.7737 15.55 19.6017 15.7807 18.8347C15.8859 18.4852 16.2751 18.3116 16.5792 18.1088C16.9423 17.8667 17.2302 17.708 17.3068 17.6988Z" fill="#E38403"/>
<path d="M17.3068 17.6988C17.3835 17.6897 17.4628 17.6677 17.4605 17.818C17.4593 17.8982 17.4688 18.5928 17.2423 19.1059C17.0443 19.5544 16.7945 19.96 16.5026 20.0107C16.2107 20.0614 15.592 19.8946 15.3307 19.9381C15.0693 19.9817 15.0913 19.9119 15.0403 19.88C14.9001 19.7737 15.55 19.6017 15.7807 18.8347C15.8859 18.4852 16.2751 18.3116 16.5792 18.1088C16.9423 17.8667 17.2302 17.708 17.3068 17.6988Z" fill="url(#paint9_linear_3029_97829)"/>
<path d="M16.6808 21.027C16.7352 20.9895 16.8529 20.9334 16.7679 20.8382C16.7226 20.7874 16.2546 20.2872 15.8243 20.086C15.4613 19.9381 14.9967 20.0252 14.837 20.1849C14.6774 20.3446 14.1257 20.4753 13.8934 20.5914C13.6636 20.7063 13.7464 20.8496 13.8184 20.9511C13.82 20.9532 13.8221 20.955 13.8246 20.9559C13.9238 20.9918 13.9784 20.7556 14.1983 20.7656C14.4755 20.7783 14.8236 20.9715 15.1419 21.1721C15.4035 21.337 15.7223 21.3052 16.0301 21.2633C16.3978 21.2134 16.6265 21.0644 16.6808 21.027Z" fill="#E38403"/>
<path d="M16.6808 21.027C16.7352 20.9895 16.8529 20.9334 16.7679 20.8382C16.7226 20.7874 16.2546 20.2872 15.8243 20.086C15.4613 19.9381 14.9967 20.0252 14.837 20.1849C14.6774 20.3446 14.1257 20.4753 13.8934 20.5914C13.6636 20.7063 13.7464 20.8496 13.8184 20.9511C13.82 20.9532 13.8221 20.955 13.8246 20.9559C13.9238 20.9918 13.9784 20.7556 14.1983 20.7656C14.4755 20.7783 14.8236 20.9715 15.1419 21.1721C15.4035 21.337 15.7223 21.3052 16.0301 21.2633C16.3978 21.2134 16.6265 21.0644 16.6808 21.027Z" fill="url(#paint10_linear_3029_97829)"/>
<path d="M19.3053 19.7722C19.3405 19.715 19.3874 19.6599 19.2602 19.6115C19.1923 19.5856 18.4859 19.3219 17.9729 19.3283C17.5246 19.334 17.4067 19.5171 17.218 19.7058C17.0293 19.8945 16.7968 20.1391 16.6663 20.3301C16.5359 20.5211 16.7244 20.5885 16.7825 20.6059C16.9276 20.6495 17.4793 20.7656 17.8568 20.7366C18.2343 20.7076 18.4956 20.4608 18.7569 20.243C19.0705 19.9817 19.27 19.8294 19.3053 19.7722Z" fill="#E38403"/>
<path d="M19.3053 19.7722C19.3405 19.715 19.3874 19.6599 19.2602 19.6115C19.1923 19.5856 18.4859 19.3219 17.9729 19.3283C17.5246 19.334 17.4067 19.5171 17.218 19.7058C17.0293 19.8945 16.7968 20.1391 16.6663 20.3301C16.5359 20.5211 16.7244 20.5885 16.7825 20.6059C16.9276 20.6495 17.4793 20.7656 17.8568 20.7366C18.2343 20.7076 18.4956 20.4608 18.7569 20.243C19.0705 19.9817 19.27 19.8294 19.3053 19.7722Z" fill="url(#paint11_linear_3029_97829)"/>
<path d="M14.3868 6.18956C14.2816 6.24103 14.2096 6.28825 14.2723 6.40629C14.3351 6.52434 15.3886 7.39456 16.0999 7.39456C16.8067 7.39455 17.0038 7.17522 17.0571 7.14824C17.0579 7.14788 17.0584 7.14754 17.0591 7.14707C17.0695 7.13961 17.1621 7.07254 17.1903 7.01749C17.265 6.84228 16.9855 6.59039 16.4193 6.23754C15.8531 5.88468 14.492 6.1381 14.3868 6.18956Z" fill="#FDAF1C"/>
<path d="M14.3868 6.18956C14.2816 6.24103 14.2096 6.28825 14.2723 6.40629C14.3351 6.52434 15.3886 7.39456 16.0999 7.39456C16.8067 7.39455 17.0038 7.17522 17.0571 7.14824C17.0579 7.14788 17.0584 7.14754 17.0591 7.14707C17.0695 7.13961 17.1621 7.07254 17.1903 7.01749C17.265 6.84228 16.9855 6.59039 16.4193 6.23754C15.8531 5.88468 14.492 6.1381 14.3868 6.18956Z" fill="url(#paint12_linear_3029_97829)"/>
<path d="M19.5987 7.38004C19.6479 7.28661 19.7585 7.24566 19.8631 7.31749C19.9676 7.38932 20.8578 8.45271 20.7167 9.02057C20.5759 9.58683 20.4619 9.97767 20.4378 10.0256C20.4377 10.0259 20.4376 10.0261 20.4374 10.0264C20.4335 10.0327 20.3857 10.1087 20.3346 10.1296C20.1749 10.1809 20.0197 9.86262 19.7004 9.31094C19.381 8.75925 19.5496 7.47347 19.5987 7.38004Z" fill="#FDAF1C"/>
<path d="M19.5987 7.38004C19.6479 7.28661 19.7585 7.24566 19.8631 7.31749C19.9676 7.38932 20.8578 8.45271 20.7167 9.02057C20.5759 9.58683 20.4619 9.97767 20.4378 10.0256C20.4377 10.0259 20.4376 10.0261 20.4374 10.0264C20.4335 10.0327 20.3857 10.1087 20.3346 10.1296C20.1749 10.1809 20.0197 9.86262 19.7004 9.31094C19.381 8.75925 19.5496 7.47347 19.5987 7.38004Z" fill="url(#paint13_linear_3029_97829)"/>
<path d="M17.9353 9.05239C17.9207 8.94783 17.9582 8.81732 18.147 8.81732C18.244 8.81732 18.6505 8.84269 19.1052 9.10768C19.5347 9.35804 19.8892 9.76099 20.0924 10.0659C20.2956 10.3707 20.1531 10.6601 20.1608 10.7113C20.1686 10.7626 20.0359 11.0623 20.0053 11.1112C19.9055 11.246 19.3916 10.6771 18.7858 10.3417C18.18 10.0063 17.95 9.15696 17.9353 9.05239Z" fill="#FDAF1C"/>
<path d="M17.9353 9.05239C17.9207 8.94783 17.9582 8.81732 18.147 8.81732C18.244 8.81732 18.6505 8.84269 19.1052 9.10768C19.5347 9.35804 19.8892 9.76099 20.0924 10.0659C20.2956 10.3707 20.1531 10.6601 20.1608 10.7113C20.1686 10.7626 20.0359 11.0623 20.0053 11.1112C19.9055 11.246 19.3916 10.6771 18.7858 10.3417C18.18 10.0063 17.95 9.15696 17.9353 9.05239Z" fill="url(#paint14_linear_3029_97829)"/>
<path d="M18.5823 6.68317C18.4719 6.43259 18.1091 5.91085 17.4789 5.71755C17.3225 5.66955 17.1009 5.67025 17.0539 5.71755C17.0069 5.76485 17.3574 7.12938 17.3951 7.18005C17.4478 7.30192 17.7448 8.01943 18.0452 7.97528C18.1862 7.95456 18.4775 7.93469 18.6686 8.13497C18.8846 8.36139 19.0616 8.67214 19.1209 8.76445C19.1764 8.83626 19.2504 8.73021 19.2793 8.68666C19.3375 8.59956 19.3003 8.28616 19.0323 8.04787C18.771 7.81558 18.6218 7.48734 18.6686 7.23486C18.6917 7.10994 18.6926 6.93376 18.5823 6.68317Z" fill="#FDAF1C"/>
<path d="M18.5823 6.68317C18.4719 6.43259 18.1091 5.91085 17.4789 5.71755C17.3225 5.66955 17.1009 5.67025 17.0539 5.71755C17.0069 5.76485 17.3574 7.12938 17.3951 7.18005C17.4478 7.30192 17.7448 8.01943 18.0452 7.97528C18.1862 7.95456 18.4775 7.93469 18.6686 8.13497C18.8846 8.36139 19.0616 8.67214 19.1209 8.76445C19.1764 8.83626 19.2504 8.73021 19.2793 8.68666C19.3375 8.59956 19.3003 8.28616 19.0323 8.04787C18.771 7.81558 18.6218 7.48734 18.6686 7.23486C18.6917 7.10994 18.6926 6.93376 18.5823 6.68317Z" fill="url(#paint15_linear_3029_97829)"/>
<path d="M21.6568 11.1495C21.6999 10.8791 21.7514 9.82936 21.3265 9.32544C21.221 9.20031 21.0797 9.19479 21.0507 9.2093C21.0217 9.22382 20.8045 9.53771 20.6588 9.92068C20.4883 10.3688 20.3875 10.8898 20.3898 10.9238C20.3681 11.0548 20.229 11.8188 20.5053 11.9444C20.635 12.0034 20.7083 12.262 20.7604 12.5339C20.8193 12.8413 20.9201 13.1872 20.9427 13.2889C20.9505 13.3793 21.0821 13.3562 21.13 13.3353C21.2261 13.2936 21.1615 13.0246 21.0653 12.6791C20.9716 12.3423 21.136 11.9513 21.3121 11.7645C21.3993 11.672 21.6138 11.4199 21.6568 11.1495Z" fill="#FDAF1C"/>
<path d="M21.6568 11.1495C21.6999 10.8791 21.7514 9.82936 21.3265 9.32544C21.221 9.20031 21.0797 9.19479 21.0507 9.2093C21.0217 9.22382 20.8045 9.53771 20.6588 9.92068C20.4883 10.3688 20.3875 10.8898 20.3898 10.9238C20.3681 11.0548 20.229 11.8188 20.5053 11.9444C20.635 12.0034 20.7083 12.262 20.7604 12.5339C20.8193 12.8413 20.9201 13.1872 20.9427 13.2889C20.9505 13.3793 21.0821 13.3562 21.13 13.3353C21.2261 13.2936 21.1615 13.0246 21.0653 12.6791C20.9716 12.3423 21.136 11.9513 21.3121 11.7645C21.3993 11.672 21.6138 11.4199 21.6568 11.1495Z" fill="url(#paint16_linear_3029_97829)"/>
<path d="M19.0037 15.5682C18.9451 15.3234 18.8662 14.433 19.1924 13.768C19.2655 13.619 19.3407 13.5868 19.3694 13.5948C19.3982 13.6029 19.6986 13.9816 19.8603 14.2616C20.033 14.5607 20.2087 15.0424 20.2087 15.0746C20.2767 15.2815 20.3394 15.6553 20.1216 16.0473C19.9038 16.4393 19.9299 16.4266 19.8167 16.657C19.7104 16.8736 19.599 17.0781 19.5118 17.1942C19.4542 17.2711 19.3532 17.1692 19.3247 17.1242C19.3236 17.1225 19.323 17.1206 19.3228 17.1186C19.3106 17.0032 19.4254 16.8738 19.4973 16.7587C19.6781 16.4694 19.4247 16.3376 19.3376 16.236C19.2637 16.1498 19.0624 15.8129 19.0037 15.5682Z" fill="#FDAF1C"/>
<path d="M19.0037 15.5682C18.9451 15.3234 18.8662 14.433 19.1924 13.768C19.2655 13.619 19.3407 13.5868 19.3694 13.5948C19.3982 13.6029 19.6986 13.9816 19.8603 14.2616C20.033 14.5607 20.2087 15.0424 20.2087 15.0746C20.2767 15.2815 20.3394 15.6553 20.1216 16.0473C19.9038 16.4393 19.9299 16.4266 19.8167 16.657C19.7104 16.8736 19.599 17.0781 19.5118 17.1942C19.4542 17.2711 19.3532 17.1692 19.3247 17.1242C19.3236 17.1225 19.323 17.1206 19.3228 17.1186C19.3106 17.0032 19.4254 16.8738 19.4973 16.7587C19.6781 16.4694 19.4247 16.3376 19.3376 16.236C19.2637 16.1498 19.0624 15.8129 19.0037 15.5682Z" fill="url(#paint17_linear_3029_97829)"/>
<path d="M17.927 17.6571C17.9371 17.4056 18.1033 16.5273 18.5981 15.976C18.7089 15.8525 18.79 15.8419 18.8154 15.8575C18.8409 15.8731 19.0271 16.3191 19.1065 16.6326C19.1914 16.9674 19.2296 17.4787 19.2208 17.5097C19.23 17.7273 19.1021 18.0522 18.786 18.3702C18.4698 18.6882 18.4453 18.6614 18.3214 18.8783C18.2052 19.0815 18.2198 19.0815 18.1472 19.1832C18.0913 19.2613 17.9911 19.1775 17.9747 19.128C17.9741 19.1261 17.974 19.124 17.9743 19.122C17.9918 19.0088 18.0124 18.9764 18.06 18.8493C18.1036 18.7331 18.1308 18.5435 18.0746 18.4221C18.0269 18.319 17.9169 17.9086 17.927 17.6571Z" fill="#E38403"/>
<path d="M17.927 17.6571C17.9371 17.4056 18.1033 16.5273 18.5981 15.976C18.7089 15.8525 18.79 15.8419 18.8154 15.8575C18.8409 15.8731 19.0271 16.3191 19.1065 16.6326C19.1914 16.9674 19.2296 17.4787 19.2208 17.5097C19.23 17.7273 19.1021 18.0522 18.786 18.3702C18.4698 18.6882 18.4453 18.6614 18.3214 18.8783C18.2052 19.0815 18.2198 19.0815 18.1472 19.1832C18.0913 19.2613 17.9911 19.1775 17.9747 19.128C17.9741 19.1261 17.974 19.124 17.9743 19.122C17.9918 19.0088 18.0124 18.9764 18.06 18.8493C18.1036 18.7331 18.1308 18.5435 18.0746 18.4221C18.0269 18.319 17.9169 17.9086 17.927 17.6571Z" fill="url(#paint18_linear_3029_97829)"/>
<path d="M6.16217 12.2726C6.14304 12.1722 6.07506 11.9968 5.9444 12.0984C5.44951 12.4833 5.20399 12.8969 4.92814 13.5066C4.77792 13.8387 5.01526 14.5519 4.84103 14.4358C4.76069 14.3822 4.73133 14.3297 4.68133 14.2471C4.53993 14.0134 4.70831 13.8097 4.62326 13.5502C4.49751 13.1665 4.40546 12.9956 3.99899 12.7517C3.9264 12.7081 3.86109 12.8629 3.83927 12.9404C3.70861 13.405 3.54478 13.7084 3.70863 14.189C3.9264 14.8278 4.08609 15.2198 4.62326 15.5972C4.74608 15.6835 4.86095 15.6151 5.00073 15.6698C5.41254 15.8311 5.39271 16.4973 5.66856 16.5845C5.76421 16.6147 5.90882 16.4712 5.84277 16.3957C5.63952 16.1634 5.41832 15.7237 5.43627 15.2488C5.4625 14.5546 6.07693 14.2764 6.16217 13.5502C6.22165 13.0434 6.22025 12.5775 6.16217 12.2726Z" fill="#FDAF1C"/>
<path d="M6.16217 12.2726C6.14304 12.1722 6.07506 11.9968 5.9444 12.0984C5.44951 12.4833 5.20399 12.8969 4.92814 13.5066C4.77792 13.8387 5.01526 14.5519 4.84103 14.4358C4.76069 14.3822 4.73133 14.3297 4.68133 14.2471C4.53993 14.0134 4.70831 13.8097 4.62326 13.5502C4.49751 13.1665 4.40546 12.9956 3.99899 12.7517C3.9264 12.7081 3.86109 12.8629 3.83927 12.9404C3.70861 13.405 3.54478 13.7084 3.70863 14.189C3.9264 14.8278 4.08609 15.2198 4.62326 15.5972C4.74608 15.6835 4.86095 15.6151 5.00073 15.6698C5.41254 15.8311 5.39271 16.4973 5.66856 16.5845C5.76421 16.6147 5.90882 16.4712 5.84277 16.3957C5.63952 16.1634 5.41832 15.7237 5.43627 15.2488C5.4625 14.5546 6.07693 14.2764 6.16217 13.5502C6.22165 13.0434 6.22025 12.5775 6.16217 12.2726Z" fill="url(#paint19_linear_3029_97829)"/>
<path d="M12.0866 4.83963C12.1423 4.74355 12.1838 4.71626 12.045 4.6768C11.9061 4.63735 10.2078 4.64225 9.76286 5.10072C9.31921 5.55782 9.10974 5.82171 9.08078 5.86975C9.08058 5.87007 9.08046 5.87029 9.0803 5.87063C9.07694 5.87756 9.03689 5.96189 9.05147 6.01536C9.11048 6.17373 9.77737 5.88469 10.5468 5.88469C11.3163 5.88469 12.0309 4.93571 12.0866 4.83963Z" fill="#FDAF1C"/>
<path d="M12.0866 4.83963C12.1423 4.74355 12.1838 4.71626 12.045 4.6768C11.9061 4.63735 10.2078 4.64225 9.76286 5.10072C9.31921 5.55782 9.10974 5.82171 9.08078 5.86975C9.08058 5.87007 9.08046 5.87029 9.0803 5.87063C9.07694 5.87756 9.03689 5.96189 9.05147 6.01536C9.11048 6.17373 9.77737 5.88469 10.5468 5.88469C11.3163 5.88469 12.0309 4.93571 12.0866 4.83963Z" fill="url(#paint20_linear_3029_97829)"/>
<path d="M4.73938 16.4683C4.65227 16.4683 4.56041 16.4544 4.58319 16.6225C4.59535 16.7122 4.67797 17.4917 5.00073 18.0363C5.28281 18.5122 5.74115 19.093 6.07504 19.1106C6.40893 19.1282 6.94614 19.0089 7.04777 18.9944C7.14939 18.9799 7.44492 19.037 7.49783 18.9944C7.64059 18.8565 6.91568 18.5162 6.55414 17.6878C6.38935 17.3103 6.05105 16.9015 5.68305 16.7151C5.24363 16.4926 4.82649 16.4683 4.73938 16.4683Z" fill="#E38403"/>
<path d="M4.73938 16.4683C4.65227 16.4683 4.56041 16.4544 4.58319 16.6225C4.59535 16.7122 4.67797 17.4917 5.00073 18.0363C5.28281 18.5122 5.74115 19.093 6.07504 19.1106C6.40893 19.1282 6.94614 19.0089 7.04777 18.9944C7.14939 18.9799 7.44492 19.037 7.49783 18.9944C7.64059 18.8565 6.91568 18.5162 6.55414 17.6878C6.38935 17.3103 6.05105 16.9015 5.68305 16.7151C5.24363 16.4926 4.82649 16.4683 4.73938 16.4683Z" fill="url(#paint21_linear_3029_97829)"/>
<path d="M8.59946 17.6988C8.52282 17.6897 8.44347 17.6677 8.44578 17.818C8.44702 17.8982 8.43747 18.5928 8.66399 19.1059C8.86196 19.5544 9.11178 19.96 9.40368 20.0107C9.69559 20.0614 10.3143 19.8946 10.5756 19.9381C10.837 19.9817 10.815 19.9119 10.866 19.88C11.0062 19.7737 10.3563 19.6017 10.1256 18.8347C10.0204 18.4852 9.6312 18.3116 9.32709 18.1088C8.96396 17.8667 8.6761 17.708 8.59946 17.6988Z" fill="#E38403"/>
<path d="M8.59946 17.6988C8.52282 17.6897 8.44347 17.6677 8.44578 17.818C8.44702 17.8982 8.43747 18.5928 8.66399 19.1059C8.86196 19.5544 9.11178 19.96 9.40368 20.0107C9.69559 20.0614 10.3143 19.8946 10.5756 19.9381C10.837 19.9817 10.815 19.9119 10.866 19.88C11.0062 19.7737 10.3563 19.6017 10.1256 18.8347C10.0204 18.4852 9.6312 18.3116 9.32709 18.1088C8.96396 17.8667 8.6761 17.708 8.59946 17.6988Z" fill="url(#paint22_linear_3029_97829)"/>
<path d="M9.22546 21.027C9.17115 20.9895 9.05345 20.9334 9.13836 20.8382C9.18367 20.7874 9.65169 20.2872 10.082 20.086C10.445 19.9381 10.9096 20.0252 11.0693 20.1849C11.2289 20.3446 11.7806 20.4753 12.0129 20.5914C12.2427 20.7063 12.16 20.8496 12.0879 20.9511C12.0863 20.9532 12.0842 20.955 12.0817 20.9559C11.9825 20.9918 11.9279 20.7556 11.708 20.7656C11.4308 20.7783 11.0827 20.9715 10.7644 21.1721C10.5028 21.337 10.184 21.3052 9.87617 21.2633C9.50854 21.2134 9.27978 21.0644 9.22546 21.027Z" fill="#E38403"/>
<path d="M9.22546 21.027C9.17115 20.9895 9.05345 20.9334 9.13836 20.8382C9.18367 20.7874 9.65169 20.2872 10.082 20.086C10.445 19.9381 10.9096 20.0252 11.0693 20.1849C11.2289 20.3446 11.7806 20.4753 12.0129 20.5914C12.2427 20.7063 12.16 20.8496 12.0879 20.9511C12.0863 20.9532 12.0842 20.955 12.0817 20.9559C11.9825 20.9918 11.9279 20.7556 11.708 20.7656C11.4308 20.7783 11.0827 20.9715 10.7644 21.1721C10.5028 21.337 10.184 21.3052 9.87617 21.2633C9.50854 21.2134 9.27978 21.0644 9.22546 21.027Z" fill="url(#paint23_linear_3029_97829)"/>
<path d="M6.60103 19.7722C6.5658 19.715 6.51887 19.6599 6.6461 19.6115C6.714 19.5856 7.4204 19.3219 7.93336 19.3283C8.38167 19.334 8.49955 19.5171 8.68829 19.7058C8.87702 19.8945 9.10953 20.1391 9.23997 20.3301C9.3704 20.5211 9.1819 20.5885 9.12384 20.6059C8.97866 20.6495 8.42697 20.7656 8.0495 20.7366C7.67203 20.7076 7.41071 20.4608 7.14939 20.243C6.8358 19.9817 6.63627 19.8294 6.60103 19.7722Z" fill="#E38403"/>
<path d="M6.60103 19.7722C6.5658 19.715 6.51887 19.6599 6.6461 19.6115C6.714 19.5856 7.4204 19.3219 7.93336 19.3283C8.38167 19.334 8.49955 19.5171 8.68829 19.7058C8.87702 19.8945 9.10953 20.1391 9.23997 20.3301C9.3704 20.5211 9.1819 20.5885 9.12384 20.6059C8.97866 20.6495 8.42697 20.7656 8.0495 20.7366C7.67203 20.7076 7.41071 20.4608 7.14939 20.243C6.8358 19.9817 6.63627 19.8294 6.60103 19.7722Z" fill="url(#paint24_linear_3029_97829)"/>
<path d="M11.5195 6.18956C11.6247 6.24103 11.6967 6.28825 11.634 6.40629C11.5712 6.52434 10.5177 7.39456 9.80638 7.39456C9.09956 7.39455 8.90254 7.17522 8.84919 7.14824C8.84846 7.14788 8.84788 7.14754 8.84721 7.14707C8.83677 7.13961 8.74421 7.07254 8.71597 7.01749C8.64135 6.84228 8.92077 6.59039 9.48698 6.23754C10.0532 5.88468 11.4143 6.1381 11.5195 6.18956Z" fill="#FDAF1C"/>
<path d="M11.5195 6.18956C11.6247 6.24103 11.6967 6.28825 11.634 6.40629C11.5712 6.52434 10.5177 7.39456 9.80638 7.39456C9.09956 7.39455 8.90254 7.17522 8.84919 7.14824C8.84846 7.14788 8.84788 7.14754 8.84721 7.14707C8.83677 7.13961 8.74421 7.07254 8.71597 7.01749C8.64135 6.84228 8.92077 6.59039 9.48698 6.23754C10.0532 5.88468 11.4143 6.1381 11.5195 6.18956Z" fill="url(#paint25_linear_3029_97829)"/>
<path d="M6.30755 7.38004C6.25839 7.28661 6.14781 7.24566 6.04324 7.31749C5.93868 7.38932 5.04846 8.45271 5.18963 9.02057C5.33041 9.58683 5.44444 9.97767 5.46847 10.0256C5.46863 10.0259 5.46873 10.0261 5.46892 10.0264C5.47277 10.0327 5.52057 10.1087 5.57172 10.1296C5.73144 10.1809 5.88656 9.86262 6.20592 9.31094C6.52529 8.75925 6.35671 7.47347 6.30755 7.38004Z" fill="#FDAF1C"/>
<path d="M6.30755 7.38004C6.25839 7.28661 6.14781 7.24566 6.04324 7.31749C5.93868 7.38932 5.04846 8.45271 5.18963 9.02057C5.33041 9.58683 5.44444 9.97767 5.46847 10.0256C5.46863 10.0259 5.46873 10.0261 5.46892 10.0264C5.47277 10.0327 5.52057 10.1087 5.57172 10.1296C5.73144 10.1809 5.88656 9.86262 6.20592 9.31094C6.52529 8.75925 6.35671 7.47347 6.30755 7.38004Z" fill="url(#paint26_linear_3029_97829)"/>
<path d="M7.97096 9.05239C7.98557 8.94783 7.94806 8.81732 7.75932 8.81732C7.66227 8.81732 7.25577 8.84269 6.80113 9.10768C6.37157 9.35804 6.01713 9.76099 5.8139 10.0659C5.61067 10.3707 5.75324 10.6601 5.74546 10.7113C5.73769 10.7626 5.87043 11.0623 5.901 11.1112C6.00078 11.246 6.51467 10.6771 7.12051 10.3417C7.72634 10.0063 7.95635 9.15696 7.97096 9.05239Z" fill="#FDAF1C"/>
<path d="M7.97096 9.05239C7.98557 8.94783 7.94806 8.81732 7.75932 8.81732C7.66227 8.81732 7.25577 8.84269 6.80113 9.10768C6.37157 9.35804 6.01713 9.76099 5.8139 10.0659C5.61067 10.3707 5.75324 10.6601 5.74546 10.7113C5.73769 10.7626 5.87043 11.0623 5.901 11.1112C6.00078 11.246 6.51467 10.6771 7.12051 10.3417C7.72634 10.0063 7.95635 9.15696 7.97096 9.05239Z" fill="url(#paint27_linear_3029_97829)"/>
<path d="M7.32404 6.68317C7.43436 6.43259 7.79721 5.91085 8.42737 5.71755C8.58384 5.66955 8.80538 5.67025 8.85241 5.71755C8.89944 5.76485 8.54893 7.12938 8.51125 7.18005C8.45849 7.30192 8.16145 8.01943 7.86108 7.97528C7.72009 7.95456 7.42881 7.93469 7.23772 8.13497C7.02168 8.36139 6.84468 8.67214 6.7854 8.76445C6.72986 8.83626 6.65595 8.73021 6.62703 8.68666C6.56884 8.59956 6.60598 8.28616 6.87402 8.04787C7.13531 7.81558 7.28452 7.48734 7.23772 7.23486C7.21456 7.10994 7.21372 6.93376 7.32404 6.68317Z" fill="#FDAF1C"/>
<path d="M7.32404 6.68317C7.43436 6.43259 7.79721 5.91085 8.42737 5.71755C8.58384 5.66955 8.80538 5.67025 8.85241 5.71755C8.89944 5.76485 8.54893 7.12938 8.51125 7.18005C8.45849 7.30192 8.16145 8.01943 7.86108 7.97528C7.72009 7.95456 7.42881 7.93469 7.23772 8.13497C7.02168 8.36139 6.84468 8.67214 6.7854 8.76445C6.72986 8.83626 6.65595 8.73021 6.62703 8.68666C6.56884 8.59956 6.60598 8.28616 6.87402 8.04787C7.13531 7.81558 7.28452 7.48734 7.23772 7.23486C7.21456 7.10994 7.21372 6.93376 7.32404 6.68317Z" fill="url(#paint28_linear_3029_97829)"/>
<path d="M4.24946 11.1495C4.2064 10.8791 4.1549 9.82936 4.57978 9.32544C4.68528 9.20031 4.82664 9.19479 4.8556 9.2093C4.88455 9.22382 5.1018 9.53771 5.2475 9.92068C5.41799 10.3688 5.51878 10.8898 5.5165 10.9238C5.5382 11.0548 5.67735 11.8188 5.40097 11.9444C5.27125 12.0034 5.19799 12.262 5.14591 12.5339C5.08703 12.8413 4.98618 13.1872 4.9636 13.2889C4.95582 13.3793 4.82424 13.3562 4.77633 13.3353C4.68022 13.2936 4.74484 13.0246 4.841 12.6791C4.93473 12.3423 4.77034 11.9513 4.59419 11.7645C4.50704 11.672 4.29252 11.4199 4.24946 11.1495Z" fill="#FDAF1C"/>
<path d="M4.24946 11.1495C4.2064 10.8791 4.1549 9.82936 4.57978 9.32544C4.68528 9.20031 4.82664 9.19479 4.8556 9.2093C4.88455 9.22382 5.1018 9.53771 5.2475 9.92068C5.41799 10.3688 5.51878 10.8898 5.5165 10.9238C5.5382 11.0548 5.67735 11.8188 5.40097 11.9444C5.27125 12.0034 5.19799 12.262 5.14591 12.5339C5.08703 12.8413 4.98618 13.1872 4.9636 13.2889C4.95582 13.3793 4.82424 13.3562 4.77633 13.3353C4.68022 13.2936 4.74484 13.0246 4.841 12.6791C4.93473 12.3423 4.77034 11.9513 4.59419 11.7645C4.50704 11.672 4.29252 11.4199 4.24946 11.1495Z" fill="url(#paint29_linear_3029_97829)"/>
<path d="M6.90257 15.5682C6.96124 15.3234 7.04008 14.433 6.71385 13.768C6.6408 13.619 6.56558 13.5868 6.53687 13.5948C6.50815 13.6029 6.20768 13.9816 6.04603 14.2616C5.87332 14.5607 5.69759 15.0424 5.69759 15.0746C5.62957 15.2815 5.56693 15.6553 5.7847 16.0473C6.00248 16.4393 5.97644 16.4266 6.08958 16.657C6.19587 16.8736 6.30735 17.0781 6.39446 17.1942C6.45213 17.2711 6.55312 17.1692 6.58161 17.1242C6.58269 17.1225 6.58332 17.1206 6.58353 17.1186C6.59568 17.0032 6.48093 16.8738 6.40898 16.7587C6.22819 16.4694 6.48157 16.3376 6.56867 16.236C6.64259 16.1498 6.84391 15.8129 6.90257 15.5682Z" fill="#FDAF1C"/>
<path d="M6.90257 15.5682C6.96124 15.3234 7.04008 14.433 6.71385 13.768C6.6408 13.619 6.56558 13.5868 6.53687 13.5948C6.50815 13.6029 6.20768 13.9816 6.04603 14.2616C5.87332 14.5607 5.69759 15.0424 5.69759 15.0746C5.62957 15.2815 5.56693 15.6553 5.7847 16.0473C6.00248 16.4393 5.97644 16.4266 6.08958 16.657C6.19587 16.8736 6.30735 17.0781 6.39446 17.1942C6.45213 17.2711 6.55312 17.1692 6.58161 17.1242C6.58269 17.1225 6.58332 17.1206 6.58353 17.1186C6.59568 17.0032 6.48093 16.8738 6.40898 16.7587C6.22819 16.4694 6.48157 16.3376 6.56867 16.236C6.64259 16.1498 6.84391 15.8129 6.90257 15.5682Z" fill="url(#paint30_linear_3029_97829)"/>
<path d="M7.9793 17.6571C7.96922 17.4056 7.803 16.5273 7.30824 15.976C7.19744 15.8525 7.1163 15.8419 7.09085 15.8575C7.0654 15.8731 6.87921 16.3191 6.79977 16.6326C6.71491 16.9674 6.67674 17.4787 6.68551 17.5097C6.6763 17.7273 6.80421 18.0522 7.12035 18.3702C7.43649 18.6882 7.461 18.6614 7.58493 18.8783C7.70107 19.0815 7.68655 19.0815 7.75915 19.1832C7.815 19.2613 7.91516 19.1775 7.93156 19.128C7.9322 19.1261 7.93227 19.124 7.93196 19.122C7.91446 19.0088 7.89392 18.9764 7.84626 18.8493C7.8027 18.7331 7.77554 18.5435 7.83173 18.4221C7.87942 18.319 7.98939 17.9086 7.9793 17.6571Z" fill="#E38403"/>
<path d="M7.9793 17.6571C7.96922 17.4056 7.803 16.5273 7.30824 15.976C7.19744 15.8525 7.1163 15.8419 7.09085 15.8575C7.0654 15.8731 6.87921 16.3191 6.79977 16.6326C6.71491 16.9674 6.67674 17.4787 6.68551 17.5097C6.6763 17.7273 6.80421 18.0522 7.12035 18.3702C7.43649 18.6882 7.461 18.6614 7.58493 18.8783C7.70107 19.0815 7.68655 19.0815 7.75915 19.1832C7.815 19.2613 7.91516 19.1775 7.93156 19.128C7.9322 19.1261 7.93227 19.124 7.93196 19.122C7.91446 19.0088 7.89392 18.9764 7.84626 18.8493C7.8027 18.7331 7.77554 18.5435 7.83173 18.4221C7.87942 18.319 7.98939 17.9086 7.9793 17.6571Z" fill="url(#paint31_linear_3029_97829)"/>
<path d="M42.4102 13.5C42.4102 15.3944 41.8048 16.9454 40.5941 18.153C39.3954 19.3488 37.8431 19.9467 35.9371 19.9467C35.086 19.9467 34.2769 19.8106 33.5097 19.5383C32.7545 19.2659 32.0712 18.8693 31.4599 18.3484C30.8605 17.8274 30.3811 17.1525 30.0214 16.3238C29.6738 15.4832 29.5 14.5419 29.5 13.5C29.5 12.1266 29.8177 10.9426 30.453 9.94809C31.0883 8.94171 31.8854 8.20765 32.8444 7.7459C33.8154 7.27231 34.8643 7.03552 35.991 7.03552C36.8062 7.03552 37.5913 7.1776 38.3465 7.46175C39.1137 7.73406 39.797 8.13069 40.3963 8.65164C41.0077 9.17259 41.4931 9.85337 41.8528 10.694C42.2244 11.5228 42.4102 12.4581 42.4102 13.5ZM32.7905 13.5C32.7905 14.5537 33.1021 15.3825 33.7255 15.9863C34.3488 16.5783 35.092 16.8743 35.9551 16.8743C36.8062 16.8743 37.5434 16.5783 38.1667 15.9863C38.802 15.3825 39.1197 14.5537 39.1197 13.5C39.1197 12.4463 38.808 11.6234 38.1847 11.0314C37.5614 10.4276 36.8301 10.1257 35.991 10.1257C35.104 10.1257 34.3488 10.4217 33.7255 11.0137C33.1021 11.5938 32.7905 12.4226 32.7905 13.5Z" fill="white"/>
<path d="M47.7315 7.28415V16.8033H52.2806V19.7158H44.441V7.28415H47.7315Z" fill="white"/>
<path d="M58.3459 17.0874H59.9461V19.7158H53.4551V17.0874H55.0554V9.91257H53.599V7.28415H59.8023V9.91257H58.3459V17.0874Z" fill="white"/>
<path d="M68.3257 12.6298L73.3064 7.24863H74.4751V19.7158H71.1847V13.9795L68.5055 16.75H68.1279L65.4488 13.9795V19.7158H62.1583V7.24863H63.3271L68.3257 12.6298Z" fill="white"/>
<path d="M80.48 19.6981H77.1895V7.26639H82.7456C84.172 7.26639 85.2868 7.73406 86.09 8.6694C86.8931 9.5929 87.2827 10.6821 87.2587 11.9372C87.2587 13.1685 86.8572 14.2341 86.054 15.1339C85.2629 16.0337 84.1601 16.4836 82.7456 16.4836H80.48V19.6981ZM80.4261 13.6598H82.7456C83.1531 13.6598 83.4828 13.4822 83.7345 13.127C83.9862 12.76 84.1121 12.3338 84.1121 11.8484C84.1121 11.3748 83.9922 10.9663 83.7525 10.623C83.5127 10.2678 83.1771 10.0902 82.7456 10.0902H80.4261V13.6598Z" fill="white"/>
<path d="M92.1871 13.5178C92.1871 12.4877 92.3669 11.5583 92.7266 10.7295C93.0982 9.90073 93.5896 9.23178 94.201 8.72268C94.8123 8.21357 95.4956 7.82878 96.2508 7.56831C97.006 7.29599 97.7971 7.15984 98.6242 7.15984C99.5353 7.15984 100.392 7.31375 101.195 7.62158C102.011 7.92942 102.73 8.45036 103.353 9.18443C103.988 9.91849 104.384 10.8124 104.54 11.8661H101.375C100.956 10.6821 100.039 10.0902 98.6242 10.0902C97.6773 10.0902 96.9161 10.4039 96.3407 11.0314C95.7653 11.6471 95.4776 12.4699 95.4776 13.5C95.4776 14.4235 95.7653 15.2168 96.3407 15.8798C96.9281 16.5428 97.6892 16.8743 98.6242 16.8743C99.3315 16.8743 99.9308 16.7086 100.422 16.377C100.914 16.0455 101.243 15.5542 101.411 14.903H104.576C104.42 16.0278 104.03 16.975 103.407 17.7445C102.784 18.5023 102.065 19.041 101.249 19.3607C100.446 19.6803 99.5712 19.8402 98.6242 19.8402C97.8091 19.8402 97.018 19.704 96.2508 19.4317C95.4956 19.1594 94.8123 18.7687 94.201 18.2596C93.5896 17.7505 93.0982 17.0874 92.7266 16.2705C92.3669 15.4417 92.1871 14.5241 92.1871 13.5178Z" fill="white"/>
<path d="M113.62 18.1708H108.909L108.19 19.7158H104.756V19.2719L110.527 7.15984H112.038L117.756 19.2719V19.7158H114.357L113.62 18.1708ZM111.265 12.4522L109.97 15.4536H112.577L111.265 12.4522Z" fill="white"/>
<path d="M118.158 15.8975H121.286C121.286 16.3001 121.484 16.6138 121.88 16.8388C122.275 17.0638 122.743 17.1762 123.282 17.1762C123.786 17.1762 124.229 17.0697 124.613 16.8566C125.008 16.6434 125.206 16.3593 125.206 16.0041C125.206 15.8147 125.17 15.6489 125.098 15.5068C125.038 15.3529 124.937 15.2345 124.793 15.1516C124.649 15.0569 124.517 14.9859 124.397 14.9385C124.289 14.8793 124.115 14.8379 123.876 14.8142C123.648 14.7787 123.486 14.755 123.39 14.7432C123.294 14.7313 123.126 14.7195 122.887 14.7077C122.275 14.6721 121.706 14.5833 121.179 14.4413C120.663 14.2992 120.178 14.092 119.722 13.8197C119.279 13.5474 118.925 13.1803 118.661 12.7186C118.41 12.245 118.284 11.6944 118.284 11.0669C118.284 9.77641 118.757 8.77596 119.704 8.06557C120.651 7.35519 121.808 7 123.174 7C124.013 7 124.793 7.148 125.512 7.44399C126.243 7.72814 126.842 8.18989 127.31 8.82923C127.789 9.45674 128.023 10.2026 128.011 11.0669H124.937C124.925 10.6644 124.757 10.3625 124.433 10.1612C124.109 9.95993 123.708 9.85929 123.228 9.85929C122.09 9.85929 121.52 10.2382 121.52 10.9959C121.52 11.3866 121.67 11.6589 121.97 11.8128C122.281 11.9668 122.773 12.0792 123.444 12.1503C124.043 12.1976 124.565 12.2628 125.008 12.3456C125.452 12.4285 125.901 12.5647 126.357 12.7541C126.812 12.9317 127.184 13.1566 127.472 13.429C127.759 13.6894 127.993 14.0446 128.173 14.4945C128.365 14.9326 128.461 15.4417 128.461 16.0219C128.461 17.2532 127.951 18.224 126.932 18.9344C125.913 19.6448 124.709 20 123.318 20C121.88 20 120.651 19.6448 119.632 18.9344C118.625 18.224 118.134 17.2117 118.158 15.8975Z" fill="white"/>
<path d="M134.869 17.0874H136.47V19.7158H129.979V17.0874H131.579V9.91257H130.122V7.28415H136.326V9.91257H134.869V17.0874Z" fill="white"/>
<path d="M148.589 19.7514L141.972 13.3046V19.7158H138.682V7.23087H139.707L146.27 13.3579V7.28415H149.56V19.7514H148.589Z" fill="white"/>
<path d="M164.5 13.5C164.5 15.3944 163.895 16.9454 162.684 18.153C161.485 19.3488 159.933 19.9467 158.027 19.9467C157.176 19.9467 156.367 19.8106 155.6 19.5383C154.844 19.2659 154.161 18.8693 153.55 18.3484C152.95 17.8274 152.471 17.1525 152.111 16.3238C151.764 15.4832 151.59 14.5419 151.59 13.5C151.59 12.1266 151.908 10.9426 152.543 9.94809C153.178 8.94171 153.975 8.20765 154.934 7.7459C155.905 7.27231 156.954 7.03552 158.081 7.03552C158.896 7.03552 159.681 7.1776 160.436 7.46175C161.204 7.73406 161.887 8.13069 162.486 8.65164C163.097 9.17259 163.583 9.85337 163.943 10.694C164.314 11.5228 164.5 12.4581 164.5 13.5ZM154.88 13.5C154.88 14.5537 155.192 15.3825 155.815 15.9863C156.439 16.5783 157.182 16.8743 158.045 16.8743C158.896 16.8743 159.633 16.5783 160.257 15.9863C160.892 15.3825 161.21 14.5537 161.21 13.5C161.21 12.4463 160.898 11.6234 160.275 11.0314C159.651 10.4276 158.92 10.1257 158.081 10.1257C157.194 10.1257 156.439 10.4217 155.815 11.0137C155.192 11.5938 154.88 12.4226 154.88 13.5Z" fill="white"/>
<defs>
<linearGradient id="paint0_linear_3029_97829" x1="12.9416" y1="2.53864" x2="12.9416" y2="24.4028" gradientUnits="userSpaceOnUse">
<stop offset="0.156932" stop-color="#C90203"/>
<stop offset="0.529374" stop-color="#AE0203"/>
<stop offset="0.697086" stop-color="#970203"/>
<stop offset="1" stop-color="#630202"/>
</linearGradient>
<linearGradient id="paint1_linear_3029_97829" x1="12.9414" y1="0.999573" x2="12.9414" y2="25.8834" gradientUnits="userSpaceOnUse">
<stop stop-color="#FFC01D"/>
<stop offset="0.572917" stop-color="#FFB21D"/>
<stop offset="0.958333" stop-color="#E58D0F"/>
</linearGradient>
<linearGradient id="paint2_linear_3029_97829" x1="12.9417" y1="0.999722" x2="12.9417" y2="25.8836" gradientUnits="userSpaceOnUse">
<stop stop-color="#FFD875"/>
<stop offset="0.0926476" stop-color="#FFCC60"/>
<stop offset="0.170565" stop-color="#FFCC60"/>
<stop offset="0.248554" stop-color="#FFCC60"/>
<stop offset="0.306783" stop-color="#FFCC60"/>
<stop offset="0.350835" stop-color="#FFCC60"/>
<stop offset="0.413482" stop-color="#FAB427"/>
<stop offset="0.508091" stop-color="#F9AB15"/>
<stop offset="0.958333" stop-color="#C77500"/>
</linearGradient>
<linearGradient id="paint3_linear_3029_97829" x1="12.9273" y1="24.3156" x2="12.9273" y2="2.53863" gradientUnits="userSpaceOnUse">
<stop stop-color="#FFD66C"/>
<stop offset="0.119424" stop-color="#FDC74B"/>
<stop offset="0.197413" stop-color="#FBBE35"/>
<stop offset="0.245997" stop-color="#FBB827"/>
<stop offset="0.390745" stop-color="#FFC64F"/>
<stop offset="0.508091" stop-color="#E19605"/>
<stop offset="0.588802" stop-color="#F0A111"/>
<stop offset="0.663308" stop-color="#E7980E"/>
<stop offset="0.768494" stop-color="#DC8C09"/>
<stop offset="0.87514" stop-color="#D07F04"/>
<stop offset="0.958333" stop-color="#C77500"/>
</linearGradient>
<linearGradient id="paint4_linear_3029_97829" x1="12.9566" y1="20.9158" x2="12.9566" y2="22.329" gradientUnits="userSpaceOnUse">
<stop stop-color="#F4A50F"/>
<stop offset="0.838542" stop-color="#E38403"/>
</linearGradient>
<linearGradient id="paint5_linear_3029_97829" x1="11.9303" y1="21.4614" x2="11.9303" y2="22.329" gradientUnits="userSpaceOnUse">
<stop stop-color="#F4A50F"/>
<stop offset="0.838542" stop-color="#E38403"/>
</linearGradient>
<linearGradient id="paint6_linear_3029_97829" x1="18.0045" y1="4.66156" x2="18.0045" y2="21.2969" gradientUnits="userSpaceOnUse">
<stop offset="0.239583" stop-color="#FDAF1C"/>
<stop offset="1" stop-color="#E58D0F"/>
</linearGradient>
<linearGradient id="paint7_linear_3029_97829" x1="18.0045" y1="4.66156" x2="18.0045" y2="21.2969" gradientUnits="userSpaceOnUse">
<stop offset="0.239583" stop-color="#FDAF1C"/>
<stop offset="1" stop-color="#E58D0F"/>
</linearGradient>
<linearGradient id="paint8_linear_3029_97829" x1="18.0045" y1="4.66156" x2="18.0045" y2="21.2969" gradientUnits="userSpaceOnUse">
<stop stop-color="#F4A50F"/>
<stop offset="0.838542" stop-color="#E38403"/>
</linearGradient>
<linearGradient id="paint9_linear_3029_97829" x1="18.0045" y1="4.66156" x2="18.0045" y2="21.2969" gradientUnits="userSpaceOnUse">
<stop stop-color="#F4A50F"/>
<stop offset="0.838542" stop-color="#E38403"/>
</linearGradient>
<linearGradient id="paint10_linear_3029_97829" x1="18.0045" y1="4.66156" x2="18.0045" y2="21.2992" gradientUnits="userSpaceOnUse">
<stop stop-color="#F4A50F"/>
<stop offset="0.838542" stop-color="#E38403"/>
</linearGradient>
<linearGradient id="paint11_linear_3029_97829" x1="18.0045" y1="4.66156" x2="18.0045" y2="21.2969" gradientUnits="userSpaceOnUse">
<stop stop-color="#F4A50F"/>
<stop offset="0.838542" stop-color="#E38403"/>
</linearGradient>
<linearGradient id="paint12_linear_3029_97829" x1="18.0045" y1="4.66156" x2="18.0045" y2="21.2969" gradientUnits="userSpaceOnUse">
<stop offset="0.239583" stop-color="#FDAF1C"/>
<stop offset="1" stop-color="#E58D0F"/>
</linearGradient>
<linearGradient id="paint13_linear_3029_97829" x1="18.0045" y1="4.66156" x2="18.0045" y2="21.2969" gradientUnits="userSpaceOnUse">
<stop offset="0.239583" stop-color="#FDAF1C"/>
<stop offset="1" stop-color="#E58D0F"/>
</linearGradient>
<linearGradient id="paint14_linear_3029_97829" x1="18.0045" y1="4.66156" x2="18.0045" y2="21.2969" gradientUnits="userSpaceOnUse">
<stop offset="0.239583" stop-color="#FDAF1C"/>
<stop offset="1" stop-color="#E58D0F"/>
</linearGradient>
<linearGradient id="paint15_linear_3029_97829" x1="18.0045" y1="4.66156" x2="18.0045" y2="21.2969" gradientUnits="userSpaceOnUse">
<stop offset="0.239583" stop-color="#FDAF1C"/>
<stop offset="1" stop-color="#E58D0F"/>
</linearGradient>
<linearGradient id="paint16_linear_3029_97829" x1="18.0045" y1="4.66156" x2="18.0045" y2="21.2969" gradientUnits="userSpaceOnUse">
<stop offset="0.239583" stop-color="#FDAF1C"/>
<stop offset="1" stop-color="#E58D0F"/>
</linearGradient>
<linearGradient id="paint17_linear_3029_97829" x1="18.0045" y1="4.66156" x2="18.0045" y2="21.2969" gradientUnits="userSpaceOnUse">
<stop offset="0.239583" stop-color="#FDAF1C"/>
<stop offset="1" stop-color="#E58D0F"/>
</linearGradient>
<linearGradient id="paint18_linear_3029_97829" x1="17.8001" y1="16.3563" x2="19.0422" y2="18.724" gradientUnits="userSpaceOnUse">
<stop stop-color="#F4A50F"/>
<stop offset="0.838542" stop-color="#E38403"/>
</linearGradient>
<linearGradient id="paint19_linear_3029_97829" x1="7.90176" y1="4.66156" x2="7.90176" y2="21.2969" gradientUnits="userSpaceOnUse">
<stop offset="0.239583" stop-color="#FDAF1C"/>
<stop offset="1" stop-color="#E58D0F"/>
</linearGradient>
<linearGradient id="paint20_linear_3029_97829" x1="7.90176" y1="4.66156" x2="7.90176" y2="21.2969" gradientUnits="userSpaceOnUse">
<stop offset="0.239583" stop-color="#FDAF1C"/>
<stop offset="1" stop-color="#E58D0F"/>
</linearGradient>
<linearGradient id="paint21_linear_3029_97829" x1="7.90176" y1="4.66156" x2="7.90176" y2="21.2969" gradientUnits="userSpaceOnUse">
<stop stop-color="#F4A50F"/>
<stop offset="0.838542" stop-color="#E38403"/>
</linearGradient>
<linearGradient id="paint22_linear_3029_97829" x1="7.90176" y1="4.66156" x2="7.90176" y2="21.2969" gradientUnits="userSpaceOnUse">
<stop stop-color="#F4A50F"/>
<stop offset="0.838542" stop-color="#E38403"/>
</linearGradient>
<linearGradient id="paint23_linear_3029_97829" x1="7.90176" y1="4.66156" x2="7.90176" y2="21.2992" gradientUnits="userSpaceOnUse">
<stop stop-color="#F4A50F"/>
<stop offset="0.838542" stop-color="#E38403"/>
</linearGradient>
<linearGradient id="paint24_linear_3029_97829" x1="7.90176" y1="4.66156" x2="7.90176" y2="21.2969" gradientUnits="userSpaceOnUse">
<stop stop-color="#F4A50F"/>
<stop offset="0.838542" stop-color="#E38403"/>
</linearGradient>
<linearGradient id="paint25_linear_3029_97829" x1="7.90176" y1="4.66156" x2="7.90176" y2="21.2969" gradientUnits="userSpaceOnUse">
<stop offset="0.239583" stop-color="#FDAF1C"/>
<stop offset="1" stop-color="#E58D0F"/>
</linearGradient>
<linearGradient id="paint26_linear_3029_97829" x1="7.90176" y1="4.66156" x2="7.90176" y2="21.2969" gradientUnits="userSpaceOnUse">
<stop offset="0.239583" stop-color="#FDAF1C"/>
<stop offset="1" stop-color="#E58D0F"/>
</linearGradient>
<linearGradient id="paint27_linear_3029_97829" x1="7.90176" y1="4.66156" x2="7.90176" y2="21.2969" gradientUnits="userSpaceOnUse">
<stop offset="0.239583" stop-color="#FDAF1C"/>
<stop offset="1" stop-color="#E58D0F"/>
</linearGradient>
<linearGradient id="paint28_linear_3029_97829" x1="7.90176" y1="4.66156" x2="7.90176" y2="21.2969" gradientUnits="userSpaceOnUse">
<stop offset="0.239583" stop-color="#FDAF1C"/>
<stop offset="1" stop-color="#E58D0F"/>
</linearGradient>
<linearGradient id="paint29_linear_3029_97829" x1="7.90176" y1="4.66156" x2="7.90176" y2="21.2969" gradientUnits="userSpaceOnUse">
<stop offset="0.239583" stop-color="#FDAF1C"/>
<stop offset="1" stop-color="#E58D0F"/>
</linearGradient>
<linearGradient id="paint30_linear_3029_97829" x1="7.90176" y1="4.66156" x2="7.90176" y2="21.2969" gradientUnits="userSpaceOnUse">
<stop offset="0.239583" stop-color="#FDAF1C"/>
<stop offset="1" stop-color="#E58D0F"/>
</linearGradient>
<linearGradient id="paint31_linear_3029_97829" x1="8.10617" y1="16.3563" x2="6.86406" y2="18.724" gradientUnits="userSpaceOnUse">
<stop stop-color="#F4A50F"/>
<stop offset="0.838542" stop-color="#E38403"/>
</linearGradient>
</defs>
</svg>
